<?xml version="1.0" standalone="no"?>
<svg viewBox="0 0 200 200" xmlns="http://www.w3.org/2000/svg">
  <path fill="#FF0066" d="M29.1,-55.5C34.7,-47.1,34.2,-33.3,44.2,-23.1C54.2,-13,74.6,-6.5,82.9,4.8C91.2,16,87.2,32,76.4,40.8C65.6,49.5,48,51,34.1,54.3C20.2,57.5,10.1,62.5,-1.4,65C-13,67.5,-26,67.5,-36.9,62.6C-47.9,57.7,-56.9,47.8,-56.7,36.6C-56.5,25.3,-47.2,12.7,-43.2,2.3C-39.3,-8.2,-40.8,-16.3,-42.8,-30.5C-44.7,-44.8,-47,-65.1,-40,-72.7C-32.9,-80.3,-16.4,-75.2,-2.4,-71.1C11.7,-67,23.5,-64,29.1,-55.5Z" transform="translate(100 100)" />
</svg>
